<?xml version="1.0" standalone="no"?>
<!DOCTYPE svg PUBLIC "-//W3C//DTD SVG 20010904//EN"
 "http://www.w3.org/TR/2001/REC-SVG-20010904/DTD/svg10.dtd">
<svg version="1.0" xmlns="http://www.w3.org/2000/svg"
 width="300.000000pt" height="300.000000pt" viewBox="0 0 500.000000 500.000000"
 preserveAspectRatio="xMidYMid meet">

<g transform="translate(0.000000,500.000000) scale(0.100000,-0.100000)"
fill="#000000" stroke="none">
<path d="M1497 3330 c-161 -17 -255 -47 -334 -107 -58 -44 -152 -203 -120
-203 8 0 30 24 50 53 84 121 192 171 415 192 l72 7 0 -327 c0 -294 2 -327 16
-321 9 3 40 6 70 6 l54 0 0 321 0 321 268 -4 c217 -4 277 -8 322 -23 156 -49
271 -149 345 -298 45 -92 75 -203 75 -278 l0 -39 81 0 82 0 -7 71 c-9 98 -51
219 -106 303 -108 166 -285 276 -505 316 -79 14 -666 21 -778 10z"/>
<path d="M3450 3179 c-164 -58 -228 -171 -245 -432 l-8 -109 32 -28 31 -29 0
-121 0 -122 -30 -30 c-22 -21 -30 -39 -30 -64 l0 -34 -195 0 c-107 0 -195 3
-195 8 1 4 7 18 15 32 8 14 14 29 15 33 0 4 -35 7 -77 5 l-78 -3 -20 -37 -20
-38 -127 0 -127 0 -3 38 -3 37 -67 3 -68 3 0 -184 0 -184 -61 -7 c-34 -3 -153
-6 -265 -6 l-204 0 -2 188 -3 187 -68 5 -67 5 0 -158 c0 -171 -6 -197 -56
-236 -15 -12 -44 -24 -66 -27 -106 -17 -1 -24 378 -24 l417 0 -6 -207 c-6
-215 -18 -298 -56 -371 -23 -43 -66 -92 -105 -117 -15 -10 -23 -22 -18 -27 13
-13 105 19 158 55 127 86 164 208 164 544 0 147 2 163 17 163 10 0 55 19 101
42 63 31 107 63 172 125 l88 83 216 0 216 0 0 -292 c0 -269 -2 -296 -19 -324
-21 -34 -75 -64 -115 -64 -14 0 -26 -4 -26 -10 0 -6 83 -10 230 -10 216 0 284
9 189 24 -58 9 -105 58 -114 117 -4 24 -5 328 -3 674 4 552 6 637 21 688 26
90 62 152 116 198 27 24 48 47 45 51 -7 10 -9 10 -74 -13z m-900 -1094 c-49
-50 -136 -115 -153 -115 -4 0 -7 38 -7 85 l0 85 107 0 107 0 -54 -55z"/>
<path d="M2090 2911 c0 -4 18 -11 41 -14 80 -11 119 -73 119 -192 l0 -75 70 0
70 0 0 88 c0 70 4 94 20 120 21 35 72 62 115 62 14 0 25 5 25 10 0 6 -83 10
-230 10 -126 0 -230 -4 -230 -9z"/>
<path d="M1720 2465 l0 -75 45 0 c65 0 91 29 86 95 -3 33 -39 55 -87 55 l-44
0 0 -75z m90 35 c23 -23 24 -33 10 -61 -7 -12 -21 -19 -40 -19 -29 0 -30 1
-30 50 0 43 3 50 20 50 11 0 29 -9 40 -20z"/>
<path d="M2040 2487 c0 -67 20 -97 64 -97 48 0 66 25 66 93 0 44 -3 57 -15 57
-11 0 -15 -13 -15 -54 0 -62 -16 -84 -49 -66 -17 9 -21 20 -21 65 0 42 -3 55
-15 55 -11 0 -15 -13 -15 -53z"/>
<path d="M2350 2531 c0 -5 10 -11 23 -13 20 -3 22 -9 25 -65 2 -47 7 -63 17
-63 12 0 15 15 15 65 0 58 2 65 19 65 11 0 23 5 26 10 4 6 -18 10 -59 10 -36
0 -66 -4 -66 -9z"/>
<path d="M2666 2521 c-24 -27 -25 -85 -1 -111 21 -23 72 -27 100 -7 24 18 3
32 -25 17 -40 -21 -83 27 -61 69 14 25 48 36 66 21 20 -16 40 -3 24 16 -17 21
-83 18 -103 -5z"/>
<path d="M2950 2465 c0 -60 3 -75 15 -75 10 0 15 10 15 30 0 28 3 30 35 30 32
0 35 -2 35 -30 0 -20 5 -30 15 -30 12 0 15 15 15 75 0 60 -3 75 -15 75 -10 0
-15 -10 -15 -30 0 -28 -3 -30 -35 -30 -32 0 -35 2 -35 30 0 20 -5 30 -15 30
-12 0 -15 -15 -15 -75z"/>
</g>
</svg>
