<?xml version="1.0" standalone="no"?>
<!DOCTYPE svg PUBLIC "-//W3C//DTD SVG 20010904//EN"
 "http://www.w3.org/TR/2001/REC-SVG-20010904/DTD/svg10.dtd">
<svg version="1.0" xmlns="http://www.w3.org/2000/svg"
 width="200.000000pt" height="200.000000pt" viewBox="0 0 500.000000 500.000000"
 preserveAspectRatio="xMidYMid meet">

<g transform="translate(0.000000,500.000000) scale(0.100000,-0.100000)"
fill="#000000" stroke="none">
<path d="M1497 3330 c-161 -17 -255 -47 -334 -107 -58 -44 -152 -203 -120
-203 8 0 30 24 50 53 84 121 192 171 415 192 l72 7 0 -316 0 -316 70 0 70 0 0
316 0 316 268 -4 c217 -4 277 -8 322 -23 156 -49 271 -149 345 -298 44 -90 75
-203 75 -273 l0 -34 81 0 82 0 -7 67 c-10 96 -52 215 -106 297 -108 166 -285
276 -505 316 -79 14 -666 21 -778 10z"/>
<path d="M3450 3179 c-164 -58 -228 -171 -245 -431 l-7 -108 69 0 70 0 7 125
c11 200 47 300 135 376 27 24 48 47 45 51 -7 10 -9 10 -74 -13z"/>
<path d="M2090 2911 c0 -4 18 -11 41 -14 79 -10 119 -73 119 -187 l0 -70 70 0
70 0 0 83 c0 65 4 89 20 115 21 35 72 62 115 62 14 0 25 5 25 10 0 6 -83 10
-230 10 -126 0 -230 -4 -230 -9z"/>
<path d="M1510 2411 l0 -101 54 0 c44 0 60 5 85 26 27 22 31 33 31 73 0 67
-29 93 -110 99 l-60 4 0 -101z m123 38 c9 -12 17 -30 17 -41 0 -27 -45 -68
-75 -68 -24 0 -25 2 -25 71 l0 72 33 -7 c17 -3 40 -16 50 -27z"/>
<path d="M1930 2432 c0 -69 3 -81 23 -100 29 -28 86 -29 118 -3 21 17 24 30
27 100 4 77 3 81 -17 81 -19 0 -21 -5 -21 -73 0 -77 -9 -97 -45 -97 -36 0 -45
20 -45 97 0 66 -2 73 -20 73 -18 0 -20 -7 -20 -78z"/>
<path d="M2330 2495 c0 -10 10 -15 30 -15 l30 0 0 -85 c0 -78 2 -85 20 -85 18
0 20 7 20 84 l0 85 32 3 c17 2 33 9 36 16 3 9 -18 12 -82 12 -70 0 -86 -3 -86
-15z"/>
<path d="M2757 2490 c-46 -36 -48 -119 -5 -160 41 -38 151 -17 134 25 -5 15
-8 15 -28 1 -12 -9 -32 -16 -44 -16 -51 0 -73 81 -33 121 21 21 31 21 87 4 16
-6 22 -3 22 8 0 39 -91 50 -133 17z"/>
<path d="M3130 2411 c0 -94 1 -101 20 -101 17 0 20 7 20 40 l0 40 45 0 45 0 0
-40 c0 -33 3 -40 20 -40 19 0 20 7 20 100 0 93 -1 100 -20 100 -17 0 -20 -7
-20 -40 l0 -40 -44 0 c-44 0 -45 0 -48 37 -2 27 -8 39 -20 41 -16 3 -18 -7
-18 -97z"/>
<path d="M1580 2080 c0 -110 -10 -143 -56 -179 -15 -12 -44 -24 -66 -27 -106
-17 -1 -24 378 -24 l417 0 -6 -207 c-6 -215 -18 -298 -56 -371 -23 -43 -66
-92 -105 -117 -15 -10 -23 -22 -18 -27 13 -13 105 19 158 55 127 86 164 208
164 544 0 147 2 163 17 163 10 0 55 19 101 42 63 31 107 63 172 125 l88 83
216 0 216 0 0 -292 c0 -269 -2 -296 -19 -324 -21 -34 -75 -64 -115 -64 -14 0
-26 -4 -26 -10 0 -6 83 -10 230 -10 214 0 284 9 191 24 -51 8 -98 48 -111 94
-6 21 -10 161 -10 330 l0 292 -545 0 -545 0 0 -129 0 -128 -61 -7 c-34 -3
-154 -6 -265 -6 l-204 0 0 135 0 135 -70 0 -70 0 0 -100z m970 5 c-49 -50
-136 -115 -153 -115 -4 0 -7 38 -7 85 l0 85 107 0 107 0 -54 -55z"/>
</g>
</svg>
