<?xml version="1.0" standalone="no"?>
<!DOCTYPE svg PUBLIC "-//W3C//DTD SVG 20010904//EN"
 "http://www.w3.org/TR/2001/REC-SVG-20010904/DTD/svg10.dtd">
<svg version="1.0" xmlns="http://www.w3.org/2000/svg"
 width="200.000000pt" height="200.000000pt" viewBox="0 0 500.000000 500.000000"
 preserveAspectRatio="xMidYMid meet">

<g transform="translate(0.000000,500.000000) scale(0.100000,-0.100000)"
fill="#000000" stroke="none">
<path d="M1200 2720 l0 -280 133 0 c153 0 214 14 279 63 66 49 98 121 98 218
0 65 -4 85 -28 130 -58 112 -145 149 -349 149 l-133 0 0 -280z m322 128 c44
-33 62 -83 56 -150 -10 -95 -67 -138 -185 -138 l-73 0 0 161 0 161 83 -3 c73
-4 88 -8 119 -31z"/>
<path d="M1971 2803 c4 -192 5 -200 31 -253 40 -81 108 -120 208 -120 67 0
117 17 159 56 37 33 41 34 120 34 l81 0 0 -200 0 -200 55 0 55 0 2 198 3 197
78 3 77 3 0 49 0 50 -200 0 -200 0 0 190 0 190 -59 0 -59 0 -4 -190 c-4 -215
-11 -236 -82 -254 -46 -12 -82 0 -110 37 -19 26 -21 44 -24 218 l-3 189 -66 0
-65 0 3 -197z"/>
<path d="M2600 2905 l0 -65 620 0 620 0 0 65 0 65 -620 0 -620 0 0 -65z"/>
<path d="M3200 2615 c-101 -46 -154 -131 -153 -245 0 -107 46 -185 138 -233
31 -17 58 -22 120 -22 71 0 86 3 134 31 56 31 105 89 117 137 l6 27 -58 0
c-54 0 -60 -2 -75 -28 -34 -60 -138 -81 -200 -39 -66 44 -86 125 -49 202 25
51 65 75 125 75 56 0 96 -19 125 -60 19 -27 27 -30 76 -30 53 0 55 1 49 23
-15 51 -62 113 -108 141 -41 25 -60 30 -130 33 -59 2 -92 -1 -117 -12z"/>
<path d="M3800 2370 l0 -250 60 0 60 0 0 100 0 100 95 0 95 0 0 -100 0 -100
60 0 60 0 0 250 0 250 -60 0 -60 0 0 -95 0 -95 -95 0 -95 0 0 95 0 95 -60 0
-60 0 0 -250z"/>
<path d="M1200 2120 l0 -70 618 2 617 3 3 68 3 67 -621 0 -620 0 0 -70z"/>
</g>
</svg>
